<svg height="512pt" viewBox="0 0 512 512" width="512pt" xmlns="http://www.w3.org/2000/svg"><path d="m512 256c0 141.386719-114.613281 256-256 256s-256-114.613281-256-256 114.613281-256 256-256 256 114.613281 256 256zm0 0" fill="#ff929f"/><path d="m229.195312 141.976562c52.667969-40.644531 79.070313-98.472656 91.082032-133.839843-20.539063-5.3125-42.078125-8.136719-64.277344-8.136719-141.386719 0-256 114.613281-256 256s114.613281 256 256 256c10.59375 0 21.046875-.644531 31.304688-1.894531-111.265626-93.394531-127.914063-189.292969-120.632813-256.339844 4.800781-44.179687 27.34375-84.636719 62.523437-111.789063zm0 0" fill="#ff737d"/><path d="m333.972656 242.511719 59.339844-59.335938c17.730469-17.734375 17.730469-46.753906 0-64.484375-17.734375-17.734375-46.753906-17.734375-64.488281 0l-59.335938 59.335938c-7.449219 7.449218-19.527343 7.449218-26.976562 0l-59.335938-59.335938c-17.734375-17.734375-46.75-17.734375-64.484375 0-17.734375 17.730469-17.734375 46.75 0 64.484375l59.335938 59.335938c7.449218 7.449219 7.449218 19.527343 0 26.976562l-59.335938 59.335938c-17.734375 17.734375-17.734375 46.753906 0 64.484375 17.734375 17.734375 46.75 17.734375 64.484375 0l59.335938-59.335938c7.449219-7.449218 19.527343-7.449218 26.976562 0l59.335938 59.335938c17.734375 17.734375 46.753906 17.734375 64.488281 0 17.730469-17.730469 17.730469-46.75 0-64.484375l-59.339844-59.335938c-7.449218-7.449219-7.449218-19.527343 0-26.976562zm0 0" fill="#fff"/><path d="m216.9375 152.453125-33.761719-33.765625c-17.734375-17.730469-46.75-17.730469-64.484375 0-17.734375 17.734375-17.734375 46.753906 0 64.488281l51.257813 51.257813c7.257812-31.316406 23.585937-59.886719 46.988281-81.980469zm0 0" fill="#bdfaff"/><path d="m183.175781 393.308594 5.898438-5.898438c-17.511719-37.863281-23.691407-73.683594-23.871094-105.101562l-46.515625 46.515625c-17.730469 17.734375-17.730469 46.753906 0 64.484375 17.734375 17.734375 46.753906 17.734375 64.488281 0zm0 0" fill="#ccf8ff"/></svg>